<svg width="1024" height="1024" viewBox="0 0 1024 1024" xmlns="http://www.w3.org/2000/svg">
  <defs>
    <linearGradient id="bg" x1="0%" y1="0%" x2="100%" y2="100%">
      <stop offset="0%" stop-color="#4f7df0"/>
      <stop offset="100%" stop-color="#2a4cc7"/>
    </linearGradient>
  </defs>
  <rect width="1024" height="1024" rx="180" fill="url(#bg)"/>
  <!-- monitor -->
  <rect x="207" y="260" width="610" height="420" rx="36" fill="#ffffff"/>
  <rect x="252" y="305" width="520" height="330" rx="12" fill="#0f1f3d"/>
  <rect x="447" y="700" width="130" height="60" rx="10" fill="#ffffff"/>
  <rect x="367" y="755" width="290" height="34" rx="17" fill="#ffffff"/>
  <!-- heartbeat / pulse line -->
  <polyline points="282,470 360,470 400,400 450,540 500,360 545,470 772,470"
            fill="none" stroke="#5dffa0" stroke-width="22" stroke-linecap="round" stroke-linejoin="round"/>
  <!-- wrench badge -->
  <circle cx="770" cy="270" r="120" fill="#ffb347" stroke="#ffffff" stroke-width="14"/>
  <path d="M730 230 a35 35 0 1 1 -14 14 l-90 90 a18 18 0 0 0 0 26 l8 8 a18 18 0 0 0 26 0 l90 -90 a35 35 0 1 1 14 -14z"
        fill="#ffffff"/>
</svg>
